<mxfile host="app.diagrams.net" agent="Mozilla/5.0 (Windows NT 10.0; Win64; x64) AppleWebKit/537.36 (KHTML, like Gecko) Chrome/138.0.0.0 Safari/537.36 Edg/138.0.0.0" version="28.0.4">
  <diagram id="7gcUSTIZ7YSJ5vT40chW" name="Page-1">
    <mxGraphModel dx="2058" dy="1124" grid="1" gridSize="10" guides="1" tooltips="1" connect="1" arrows="1" fold="1" page="1" pageScale="1" pageWidth="1169" pageHeight="827" math="0" shadow="0">
      <root>
        <mxCell id="0" />
        <mxCell id="1" parent="0" />
        <mxCell id="qpDqD3LjmbyQJaldgmD7-9" value="" style="rounded=1;whiteSpace=wrap;html=1;" vertex="1" parent="1">
          <mxGeometry x="410" y="360" width="500" height="390" as="geometry" />
        </mxCell>
        <mxCell id="qpDqD3LjmbyQJaldgmD7-1" value="" style="image;sketch=0;aspect=fixed;html=1;points=[];align=center;fontSize=12;image=img/lib/mscae/Cache_Redis_Product.svg;" vertex="1" parent="1">
          <mxGeometry x="810" y="534" width="50" height="42" as="geometry" />
        </mxCell>
        <mxCell id="qpDqD3LjmbyQJaldgmD7-7" value="" style="outlineConnect=0;dashed=0;verticalLabelPosition=bottom;verticalAlign=top;align=center;html=1;shape=mxgraph.aws3.ec2;fillColor=#F58534;gradientColor=none;" vertex="1" parent="1">
          <mxGeometry x="450" y="320" width="60" height="73" as="geometry" />
        </mxCell>
        <mxCell id="qpDqD3LjmbyQJaldgmD7-10" value="" style="rounded=1;whiteSpace=wrap;html=1;" vertex="1" parent="1">
          <mxGeometry x="440" y="500" width="200" height="110" as="geometry" />
        </mxCell>
        <mxCell id="qpDqD3LjmbyQJaldgmD7-19" value="" style="shape=image;imageAspect=0;aspect=fixed;verticalLabelPosition=bottom;verticalAlign=top;image=https://i0.wp.com/blogcodestates.com/wp-content/uploads/2022/11/%EC%8A%A4%ED%94%84%EB%A7%81%EB%B6%80%ED%8A%B8.png?resize=750%2C343&amp;ssl=1;" vertex="1" parent="1">
          <mxGeometry x="457" y="518.38" width="160" height="73.24" as="geometry" />
        </mxCell>
        <mxCell id="qpDqD3LjmbyQJaldgmD7-22" value="Actor" style="shape=umlActor;verticalLabelPosition=bottom;verticalAlign=top;html=1;outlineConnect=0;" vertex="1" parent="1">
          <mxGeometry x="680" y="70" width="30" height="60" as="geometry" />
        </mxCell>
        <mxCell id="qpDqD3LjmbyQJaldgmD7-23" value="" style="endArrow=classic;html=1;rounded=0;entryX=0.514;entryY=-0.005;entryDx=0;entryDy=0;entryPerimeter=0;" edge="1" parent="1" target="qpDqD3LjmbyQJaldgmD7-9">
          <mxGeometry width="50" height="50" relative="1" as="geometry">
            <mxPoint x="667" y="170" as="sourcePoint" />
            <mxPoint x="635" y="230" as="targetPoint" />
          </mxGeometry>
        </mxCell>
        <mxCell id="qpDqD3LjmbyQJaldgmD7-25" value="1. /subscribe 호출" style="text;html=1;align=center;verticalAlign=middle;resizable=0;points=[];autosize=1;strokeColor=none;fillColor=none;" vertex="1" parent="1">
          <mxGeometry x="540" y="240" width="120" height="30" as="geometry" />
        </mxCell>
        <mxCell id="qpDqD3LjmbyQJaldgmD7-29" value="" style="image;aspect=fixed;html=1;points=[];align=center;fontSize=12;image=img/lib/azure2/databases/Azure_Database_MariaDB_Server.svg;" vertex="1" parent="1">
          <mxGeometry x="700" y="660" width="48" height="64" as="geometry" />
        </mxCell>
        <mxCell id="qpDqD3LjmbyQJaldgmD7-32" value="" style="endArrow=classic;html=1;rounded=0;" edge="1" parent="1">
          <mxGeometry width="50" height="50" relative="1" as="geometry">
            <mxPoint x="650" y="380" as="sourcePoint" />
            <mxPoint x="560" y="490" as="targetPoint" />
          </mxGeometry>
        </mxCell>
        <mxCell id="qpDqD3LjmbyQJaldgmD7-33" value="2. sseEmitter 생성, 저장" style="text;html=1;align=center;verticalAlign=middle;resizable=0;points=[];autosize=1;strokeColor=none;fillColor=none;" vertex="1" parent="1">
          <mxGeometry x="440" y="414" width="150" height="30" as="geometry" />
        </mxCell>
        <mxCell id="qpDqD3LjmbyQJaldgmD7-34" value="" style="endArrow=classic;html=1;rounded=0;" edge="1" parent="1">
          <mxGeometry width="50" height="50" relative="1" as="geometry">
            <mxPoint x="160" y="540" as="sourcePoint" />
            <mxPoint x="390" y="540" as="targetPoint" />
          </mxGeometry>
        </mxCell>
        <mxCell id="qpDqD3LjmbyQJaldgmD7-35" value="Actor" style="shape=umlActor;verticalLabelPosition=bottom;verticalAlign=top;html=1;outlineConnect=0;" vertex="1" parent="1">
          <mxGeometry x="110" y="510" width="30" height="60" as="geometry" />
        </mxCell>
        <mxCell id="qpDqD3LjmbyQJaldgmD7-36" value="3. 다른 사용자에 의해 알림 발생" style="text;html=1;align=center;verticalAlign=middle;resizable=0;points=[];autosize=1;strokeColor=none;fillColor=none;" vertex="1" parent="1">
          <mxGeometry x="180" y="500" width="180" height="30" as="geometry" />
        </mxCell>
        <mxCell id="qpDqD3LjmbyQJaldgmD7-37" value="" style="endArrow=classic;html=1;rounded=0;exitX=0.3;exitY=0.667;exitDx=0;exitDy=0;exitPerimeter=0;" edge="1" parent="1">
          <mxGeometry width="50" height="50" relative="1" as="geometry">
            <mxPoint x="550" y="620.1300000000001" as="sourcePoint" />
            <mxPoint x="690" y="681.4824390243903" as="targetPoint" />
          </mxGeometry>
        </mxCell>
        <mxCell id="qpDqD3LjmbyQJaldgmD7-38" value="4. db에 상대방 정보 조회, 알림 정보를 저장" style="text;html=1;align=center;verticalAlign=middle;resizable=0;points=[];autosize=1;strokeColor=none;fillColor=none;" vertex="1" parent="1">
          <mxGeometry x="417" y="677" width="240" height="30" as="geometry" />
        </mxCell>
        <mxCell id="qpDqD3LjmbyQJaldgmD7-39" value="" style="endArrow=classic;html=1;rounded=0;" edge="1" parent="1">
          <mxGeometry width="50" height="50" relative="1" as="geometry">
            <mxPoint x="664" y="510" as="sourcePoint" />
            <mxPoint x="784" y="550" as="targetPoint" />
          </mxGeometry>
        </mxCell>
        <mxCell id="qpDqD3LjmbyQJaldgmD7-40" value="5. 알림 내용 전송 요청" style="text;html=1;align=center;verticalAlign=middle;resizable=0;points=[];autosize=1;strokeColor=none;fillColor=none;" vertex="1" parent="1">
          <mxGeometry x="685" y="480" width="140" height="30" as="geometry" />
        </mxCell>
        <mxCell id="qpDqD3LjmbyQJaldgmD7-41" value="" style="endArrow=classic;html=1;rounded=0;" edge="1" parent="1">
          <mxGeometry width="50" height="50" relative="1" as="geometry">
            <mxPoint x="790" y="560" as="sourcePoint" />
            <mxPoint x="660" y="598.38" as="targetPoint" />
          </mxGeometry>
        </mxCell>
        <mxCell id="qpDqD3LjmbyQJaldgmD7-42" value="6. 구독 중인 인스턴스에 메시지 발행" style="text;html=1;align=center;verticalAlign=middle;resizable=0;points=[];autosize=1;strokeColor=none;fillColor=none;" vertex="1" parent="1">
          <mxGeometry x="660" y="610" width="200" height="30" as="geometry" />
        </mxCell>
        <mxCell id="qpDqD3LjmbyQJaldgmD7-43" value="" style="endArrow=classic;html=1;rounded=0;" edge="1" parent="1">
          <mxGeometry width="50" height="50" relative="1" as="geometry">
            <mxPoint x="720" y="350" as="sourcePoint" />
            <mxPoint x="720" y="170" as="targetPoint" />
          </mxGeometry>
        </mxCell>
        <mxCell id="qpDqD3LjmbyQJaldgmD7-44" value="7. sseEmitter가 해당하는 사용자에게 알림 전달" style="text;html=1;align=center;verticalAlign=middle;resizable=0;points=[];autosize=1;strokeColor=none;fillColor=none;" vertex="1" parent="1">
          <mxGeometry x="720" y="240" width="260" height="30" as="geometry" />
        </mxCell>
      </root>
    </mxGraphModel>
  </diagram>
</mxfile>
